.
..............................Site Info...........................

 -   http://www.scenetime.com  *_*   

Scenetime .Always on time . friendly online private torrent community ..

     We care to share . Join us on  http://www.scenetime.com 

    Be the first to get new release at  http://www.scenetime.com

        Seed back for speed


...................................NFO:.................................................[img]http://i.imgbox.com/aaeVxqRq.jpg[/img]


[color=green][size=3]General Info[/size][/color]
ENCODER     : Kobe
Source Video: BD Disk
Source Audio: BD Disk 
Channel     : 6 channels 
IMDB        : http://www.imdb.com/title/tt1674784/
subs        : none



[color=green][size=3]Video[/size][/color]
ID                                       : 0
Format                                   : MPEG-4 Visual
Format profile                           : Advanced Simple@L5
Format settings, BVOP                    : 1
Format settings, QPel                    : No
Format settings, GMC                     : No warppoints
Format settings, Matrix                  : Default (H.263)
Codec ID                                 : XVID
Codec ID/Hint                            : XviD
Duration                                 : 1h 30mn
Bit rate                                 : 1 492 Kbps
Width                                    : 720 pixels
Height                                   : 304 pixels
Display aspect ratio                     : 2.35:1
Frame rate                               : 19.181 fps
Color space                              : YUV
Chroma subsampling                       : 4:2:0
Bit depth                                : 8 bits
Scan type                                : Progressive
Compression mode                         : Lossy
Bits/(Pixel*Frame)                       : 0.355
Stream size                              : 968 MiB (70%)
Writing library                          : XviD 1.2.1 (UTC 2008-12-04)

[color=green][size=3]Audio[/size][/color]
ID                                       : 1
Format                                   : AC-3
Format/Info                              : Audio Coding 3
Mode extension                           : CM (complete main)
Codec ID                                 : 2000
Duration                                 : 1h 30mn
Bit rate mode                            : Constant
Bit rate                                 : 640 Kbps
Channel(s)                               : 6 channels
Channel positions                        : Front: L C R, Side: L R, LFE
Sampling rate                            : 48.0 KHz
Bit depth                                : 16 bits
Compression mode                         : Lossy
Stream size                              : 415 MiB (30%)
Alignment                                : Aligned on interleaves
Interleave, duration                     : 64 ms (1.23 video frame)
Interleave, preload duration             : 192 ms
Title                                    : F1_T3_Audio - English




[color=red][size=3]NOTE:[/size][/color]
Straight up encode from the BD disk
Using no filters. :D


 

[color=Green][size=3]Greetz[/size][/color]
unevano,Mr.hive :rock: R3dRuM,rfcgazza,Killerhz,cooperman,ANALOG,26K,Inspiral,HOPE,Xtreme Encode, Toffee :rock:, KoDeKinG :P 

[img]http://i.imgur.com/QIPID.png[/img]
[img]http://i.imgur.com/u0ZYa.png[/img]
[img]http://i.imgur.com/ag9fX.png[/img]



[img]http://i.imgur.com/wrJ5s.jpg[/img]